<svg xmlns:dc="http://purl.org/dc/elements/1.1/" xmlns:cc="http://creativecommons.org/ns#" xmlns:rdf="http://www.w3.org/1999/02/22-rdf-syntax-ns#" xmlns:svg="http://www.w3.org/2000/svg" xmlns="http://www.w3.org/2000/svg" xmlns:sodipodi="http://sodipodi.sourceforge.net/DTD/sodipodi-0.dtd" xmlns:inkscape="http://www.inkscape.org/namespaces/inkscape" width="338.66669mm" height="119.24593mm" viewBox="0 0 338.66668 119.24593" version="1.1" id="svg8" inkscape:version="1.0.1 (3bc2e813f5, 2020-09-07)" xmlns:xlink="http://www.w3.org/1999/xlink">
 <defs id="defs2">
 </defs>
 <sodipodi:namedview id="base" pagecolor="#ffffff" bordercolor="#666666" borderopacity="1.0" inkscape:pageopacity="0.0" inkscape:pageshadow="2" inkscape:zoom="0.57812497" inkscape:cx="640.00004" inkscape:cy="225.34665" inkscape:document-units="mm" inkscape:current-layer="layer1" inkscape:document-rotation="0" showgrid="false" showguides="false" inkscape:window-width="1280" inkscape:window-height="962" inkscape:window-x="-8" inkscape:window-y="-8" inkscape:window-maximized="1">
 </sodipodi:namedview>
 <metadata id="metadata5">
  <rdf:RDF>
   <cc:Work rdf:about="">
    <dc:format>
     image/svg+xml
    </dc:format>
    <dc:type rdf:resource="http://purl.org/dc/dcmitype/StillImage">
    </dc:type>
    <dc:title>
    </dc:title>
   </cc:Work>
  </rdf:RDF>
 </metadata>
 <g inkscape:label="Layer 1" inkscape:groupmode="layer" id="layer1" transform="translate(-90.978862,2.7214294)">
  <g id="g982" transform="matrix(1.2830229,0,0,1.2830229,-25.749098,0.77022673)">
   <path id="rect870" style="fill:#e75c24;fill-opacity:1;stroke-width:0.179523;paint-order:stroke fill markers" d="M 90.978859,-2.7214293 H 151.46261 V 90.219954 H 90.978859 Z">
   </path>
   <path d="m 181.17165,82.967299 q -4.20068,0 -7.18377,-1.278468 -2.92221,-1.278467 -4.74859,-3.531005 -1.82638,-2.252538 -2.67869,-5.235628 -0.79144,-3.04397 -0.79144,-6.514096 V 39.864685 h 4.1398 v 25.995503 q 0,3.470125 0.79144,6.02706 0.85231,2.496055 2.31341,4.139799 1.46111,1.643744 3.53101,2.435176 2.0699,0.791432 4.62683,0.791432 2.55694,0 4.62684,-0.791432 2.0699,-0.791432 3.531,-2.435176 1.46111,-1.643744 2.25254,-4.139799 0.85231,-2.556935 0.85231,-6.02706 V 39.864685 h 4.1398 v 26.543417 q 0,3.470126 -0.85231,6.514096 -0.79143,2.98309 -2.61782,5.235628 -1.82638,2.252538 -4.80947,3.531005 -2.92221,1.278468 -7.12289,1.278468 z" style="font-style:normal;font-variant:normal;font-weight:300;font-stretch:normal;font-size:60.8794px;line-height:1.25;font-family:Ubuntu;-inkscape-font-specification:'Ubuntu Light';letter-spacing:-0.933979px;fill:#000000;fill-opacity:1;stroke:none;stroke-width:1.52198" id="path851">
   </path>
   <path d="m 210.15571,52.46672 q 1.03495,-0.791432 3.28749,-1.643744 2.31341,-0.913191 5.41826,-0.913191 3.40925,0 6.02706,1.217588 2.6787,1.217588 4.50508,3.409247 1.82638,2.191658 2.73957,5.235628 0.97407,2.98309 0.97407,6.574975 0,3.835402 -1.15671,6.879372 -1.09583,3.04397 -3.16573,5.174749 -2.00902,2.130779 -4.87035,3.287487 -2.80045,1.095829 -6.27058,1.095829 -4.20067,0 -6.94025,-0.547914 -2.73957,-0.547915 -4.50507,-1.156709 v -45.53779 l 3.95716,-0.730552 z m 0,25.873744 q 0.91319,0.304397 2.67869,0.608794 1.82638,0.243518 4.74859,0.243518 5.11387,0 8.21872,-3.287488 3.10485,-3.348366 3.10485,-9.558065 0,-2.617814 -0.54791,-4.931231 -0.54792,-2.374297 -1.7655,-4.07892 -1.21759,-1.765503 -3.22661,-2.800452 -1.94814,-1.03495 -4.87035,-1.03495 -1.40023,0 -2.6787,0.304397 -1.27846,0.243517 -2.37429,0.669673 -1.09583,0.426156 -1.94814,0.913191 -0.79144,0.487035 -1.33935,0.913191 z" style="font-style:normal;font-variant:normal;font-weight:300;font-stretch:normal;font-size:60.8794px;line-height:1.25;font-family:Ubuntu;-inkscape-font-specification:'Ubuntu Light';letter-spacing:-0.933979px;fill:#000000;fill-opacity:1;stroke:none;stroke-width:1.52198" id="path853">
   </path>
   <path d="m 265.00576,80.958278 q -1.7655,0.487036 -4.7486,1.09583 -2.98309,0.608794 -7.30552,0.608794 -3.53101,0 -5.9053,-1.03495 -2.3743,-1.03495 -3.83541,-2.922211 -1.4611,-1.887262 -2.13078,-4.565955 -0.60879,-2.678694 -0.60879,-5.905302 V 50.579459 h 3.95716 v 16.376558 q 0,3.348367 0.48704,5.661784 0.48703,2.313417 1.58286,3.774523 1.09583,1.400226 2.80045,2.069899 1.76551,0.608794 4.26156,0.608794 2.80045,0 4.87035,-0.304397 2.0699,-0.304397 2.61782,-0.547914 V 50.579459 h 3.95716 z" style="font-style:normal;font-variant:normal;font-weight:300;font-stretch:normal;font-size:60.8794px;line-height:1.25;font-family:Ubuntu;-inkscape-font-specification:'Ubuntu Light';letter-spacing:-0.933979px;fill:#000000;fill-opacity:1;stroke:none;stroke-width:1.52198" id="path855">
   </path>
   <path d="m 274.38432,51.675288 q 1.7655,-0.487035 4.74859,-1.095829 2.98309,-0.608794 7.30553,-0.608794 3.59188,0 5.96618,1.03495 2.43517,1.034949 3.8354,2.98309 1.4611,1.887261 2.0699,4.565955 0.60879,2.678693 0.60879,5.905302 v 17.594146 h -3.95716 V 65.738429 q 0,-3.348367 -0.48703,-5.661784 -0.42616,-2.313417 -1.52199,-3.774523 -1.03495,-1.461105 -2.80045,-2.069899 -1.70462,-0.669674 -4.32244,-0.669674 -2.80045,0 -4.87035,0.304397 -2.00902,0.304397 -2.61781,0.547915 v 27.639247 h -3.95716 z" style="font-style:normal;font-variant:normal;font-weight:300;font-stretch:normal;font-size:60.8794px;line-height:1.25;font-family:Ubuntu;-inkscape-font-specification:'Ubuntu Light';letter-spacing:-0.933979px;fill:#000000;fill-opacity:1;stroke:none;stroke-width:1.52198" id="path857">
   </path>
   <path d="m 311.72476,50.579459 h 12.54115 v 3.348367 H 311.72476 V 70.66966 q 0,2.678694 0.42615,4.383317 0.48704,1.643744 1.33935,2.556935 0.85231,0.913191 2.0699,1.217588 1.21759,0.304397 2.67869,0.304397 2.49606,0 4.01804,-0.547915 1.52199,-0.608794 2.3743,-1.095829 l 0.97407,3.287487 q -0.85231,0.547915 -2.98309,1.278468 -2.13078,0.669673 -4.62683,0.669673 -2.92222,0 -4.93124,-0.730553 -1.94814,-0.791432 -3.16572,-2.313417 -1.15671,-1.582864 -1.64375,-3.896281 -0.48703,-2.313418 -0.48703,-5.479146 V 41.32579 l 3.95716,-0.730553 z" style="font-style:normal;font-variant:normal;font-weight:300;font-stretch:normal;font-size:60.8794px;line-height:1.25;font-family:Ubuntu;-inkscape-font-specification:'Ubuntu Light';letter-spacing:-0.933979px;fill:#000000;fill-opacity:1;stroke:none;stroke-width:1.52198" id="path859">
   </path>
   <path d="m 354.93882,80.958278 q -1.7655,0.487036 -4.74859,1.09583 -2.98309,0.608794 -7.30553,0.608794 -3.531,0 -5.9053,-1.03495 -2.3743,-1.03495 -3.8354,-2.922211 -1.46111,-1.887262 -2.13078,-4.565955 -0.6088,-2.678694 -0.6088,-5.905302 V 50.579459 h 3.95717 v 16.376558 q 0,3.348367 0.48703,5.661784 0.48704,2.313417 1.58287,3.774523 1.09582,1.400226 2.80045,2.069899 1.7655,0.608794 4.26156,0.608794 2.80045,0 4.87035,-0.304397 2.0699,-0.304397 2.61781,-0.547914 V 50.579459 h 3.95716 z" style="font-style:normal;font-variant:normal;font-weight:300;font-stretch:normal;font-size:60.8794px;line-height:1.25;font-family:Ubuntu;-inkscape-font-specification:'Ubuntu Light';letter-spacing:-0.933979px;fill:#000000;fill-opacity:1;stroke:none;stroke-width:1.52198" id="path861">
   </path>
   <path style="color:#000000;font-style:normal;font-variant:normal;font-weight:normal;font-stretch:normal;font-size:medium;line-height:normal;font-family:sans-serif;font-variant-ligatures:normal;font-variant-position:normal;font-variant-caps:normal;font-variant-numeric:normal;font-variant-alternates:normal;font-variant-east-asian:normal;font-feature-settings:normal;font-variation-settings:normal;text-indent:0;text-align:start;text-decoration:none;text-decoration-line:none;text-decoration-style:solid;text-decoration-color:#000000;letter-spacing:normal;word-spacing:normal;text-transform:none;writing-mode:lr-tb;direction:ltr;text-orientation:mixed;dominant-baseline:auto;baseline-shift:baseline;text-anchor:start;white-space:normal;shape-padding:0;shape-margin:0;inline-size:0;clip-rule:nonzero;display:inline;overflow:visible;visibility:visible;isolation:auto;mix-blend-mode:normal;color-interpolation:sRGB;color-interpolation-filters:linearRGB;solid-color:#000000;solid-opacity:1;vector-effect:none;fill:#ffffff;fill-opacity:1;fill-rule:nonzero;stroke:none;stroke-width:5.68219;stroke-linecap:butt;stroke-linejoin:miter;stroke-miterlimit:4;stroke-dasharray:none;stroke-dashoffset:0;stroke-opacity:1;paint-order:stroke fill markers;color-rendering:auto;image-rendering:auto;shape-rendering:auto;text-rendering:auto;enable-background:accumulate;stop-color:#000000" d="m 110.48096,58.714516 c 0,3.487259 -2.82698,6.314241 -6.31424,6.314243 -3.48726,1e-6 -6.314245,-2.826982 -6.314245,-6.314243 0,-3.487261 2.826985,-6.314244 6.314245,-6.314243 3.48726,2e-6 6.31424,2.826984 6.31424,6.314243 z" id="path924">
   </path>
   <path style="color:#000000;font-style:normal;font-variant:normal;font-weight:normal;font-stretch:normal;font-size:medium;line-height:normal;font-family:sans-serif;font-variant-ligatures:normal;font-variant-position:normal;font-variant-caps:normal;font-variant-numeric:normal;font-variant-alternates:normal;font-variant-east-asian:normal;font-feature-settings:normal;font-variation-settings:normal;text-indent:0;text-align:start;text-decoration:none;text-decoration-line:none;text-decoration-style:solid;text-decoration-color:#000000;letter-spacing:normal;word-spacing:normal;text-transform:none;writing-mode:lr-tb;direction:ltr;text-orientation:mixed;dominant-baseline:auto;baseline-shift:baseline;text-anchor:start;white-space:normal;shape-padding:0;shape-margin:0;inline-size:0;clip-rule:nonzero;display:inline;overflow:visible;visibility:visible;isolation:auto;mix-blend-mode:normal;color-interpolation:sRGB;color-interpolation-filters:linearRGB;solid-color:#000000;solid-opacity:1;vector-effect:none;fill:#ffffff;fill-opacity:1;fill-rule:nonzero;stroke:none;stroke-width:5.68219;stroke-linecap:butt;stroke-linejoin:miter;stroke-miterlimit:4;stroke-dasharray:none;stroke-dashoffset:0;stroke-opacity:1;paint-order:stroke fill markers;color-rendering:auto;image-rendering:auto;shape-rendering:auto;text-rendering:auto;enable-background:accumulate;stop-color:#000000" d="m 136.88665,44.823893 c 0,3.487259 -2.82698,6.314241 -6.31424,6.314243 -3.48727,9e-6 -6.31426,-2.826976 -6.31426,-6.314243 0,-3.487267 2.82699,-6.314252 6.31426,-6.314243 3.48726,2e-6 6.31424,2.826984 6.31424,6.314243 z" id="path930">
   </path>
   <path style="color:#000000;font-style:normal;font-variant:normal;font-weight:normal;font-stretch:normal;font-size:medium;line-height:normal;font-family:sans-serif;font-variant-ligatures:normal;font-variant-position:normal;font-variant-caps:normal;font-variant-numeric:normal;font-variant-alternates:normal;font-variant-east-asian:normal;font-feature-settings:normal;font-variation-settings:normal;text-indent:0;text-align:start;text-decoration:none;text-decoration-line:none;text-decoration-style:solid;text-decoration-color:#000000;letter-spacing:normal;word-spacing:normal;text-transform:none;writing-mode:lr-tb;direction:ltr;text-orientation:mixed;dominant-baseline:auto;baseline-shift:baseline;text-anchor:start;white-space:normal;shape-padding:0;shape-margin:0;inline-size:0;clip-rule:nonzero;display:inline;overflow:visible;visibility:visible;isolation:auto;mix-blend-mode:normal;color-interpolation:sRGB;color-interpolation-filters:linearRGB;solid-color:#000000;solid-opacity:1;vector-effect:none;fill:#ffffff;fill-opacity:1;fill-rule:nonzero;stroke:none;stroke-width:5.68219;stroke-linecap:butt;stroke-linejoin:miter;stroke-miterlimit:4;stroke-dasharray:none;stroke-dashoffset:0;stroke-opacity:1;paint-order:stroke fill markers;color-rendering:auto;image-rendering:auto;shape-rendering:auto;text-rendering:auto;enable-background:accumulate;stop-color:#000000" d="m 135.43145,75.039309 c 0,3.487259 -2.82698,6.314241 -6.31424,6.314243 -3.48727,9e-6 -6.31426,-2.826976 -6.31426,-6.314243 0,-3.487267 2.82699,-6.314252 6.31426,-6.314243 3.48726,2e-6 6.31424,2.826984 6.31424,6.314243 z" id="path936">
   </path>
   <path style="color:#000000;font-style:normal;font-variant:normal;font-weight:normal;font-stretch:normal;font-size:medium;line-height:normal;font-family:sans-serif;font-variant-ligatures:normal;font-variant-position:normal;font-variant-caps:normal;font-variant-numeric:normal;font-variant-alternates:normal;font-variant-east-asian:normal;font-feature-settings:normal;font-variation-settings:normal;text-indent:0;text-align:start;text-decoration:none;text-decoration-line:none;text-decoration-style:solid;text-decoration-color:#000000;letter-spacing:normal;word-spacing:normal;text-transform:none;writing-mode:lr-tb;direction:ltr;text-orientation:mixed;dominant-baseline:auto;baseline-shift:baseline;text-anchor:start;white-space:normal;shape-padding:0;shape-margin:0;inline-size:0;clip-rule:nonzero;display:inline;overflow:visible;visibility:visible;isolation:auto;mix-blend-mode:normal;color-interpolation:sRGB;color-interpolation-filters:linearRGB;solid-color:#000000;solid-opacity:1;vector-effect:none;fill:#ffffff;fill-opacity:1;fill-rule:nonzero;stroke:none;stroke-width:39.1929;stroke-linecap:butt;stroke-linejoin:miter;stroke-miterlimit:4;stroke-dasharray:none;stroke-dashoffset:0;stroke-opacity:1;paint-order:stroke fill markers;color-rendering:auto;image-rendering:auto;shape-rendering:auto;text-rendering:auto;enable-background:accumulate;stop-color:#000000" d="m 48.683594,198.16797 c 0.714608,-0.0449 1.433084,-0.0742 2.158203,-0.0742 6.755065,0 13.078171,1.98673 18.429687,5.39063 10.38372,-14.78796 27.444365,-24.53122 46.814456,-24.86133 0.3465,-7.57102 3.17345,-14.53747 7.67968,-20.10352 -2.1984,-0.18709 -4.41996,-0.28711 -6.66406,-0.28711 -29.178617,1e-5 -54.806276,16.154 -68.417966,39.93555 z" transform="matrix(0.26458333,0,0,0.26458333,90.714279,-2.8537211)" id="path955">
   </path>
   <path style="color:#000000;font-style:normal;font-variant:normal;font-weight:normal;font-stretch:normal;font-size:medium;line-height:normal;font-family:sans-serif;font-variant-ligatures:normal;font-variant-position:normal;font-variant-caps:normal;font-variant-numeric:normal;font-variant-alternates:normal;font-variant-east-asian:normal;font-feature-settings:normal;font-variation-settings:normal;text-indent:0;text-align:start;text-decoration:none;text-decoration-line:none;text-decoration-style:solid;text-decoration-color:#000000;letter-spacing:normal;word-spacing:normal;text-transform:none;writing-mode:lr-tb;direction:ltr;text-orientation:mixed;dominant-baseline:auto;baseline-shift:baseline;text-anchor:start;white-space:normal;shape-padding:0;shape-margin:0;inline-size:0;clip-rule:nonzero;display:inline;overflow:visible;visibility:visible;isolation:auto;mix-blend-mode:normal;color-interpolation:sRGB;color-interpolation-filters:linearRGB;solid-color:#000000;solid-opacity:1;vector-effect:none;fill:#ffffff;fill-opacity:1;fill-rule:nonzero;stroke:none;stroke-width:39.1929;stroke-linecap:butt;stroke-linejoin:miter;stroke-miterlimit:4;stroke-dasharray:none;stroke-dashoffset:0;stroke-opacity:1;paint-order:stroke fill markers;color-rendering:auto;image-rendering:auto;shape-rendering:auto;text-rendering:auto;enable-background:accumulate;stop-color:#000000" d="m 118.02148,315.77148 c -4.54658,-5.74316 -7.32002,-12.93454 -7.46679,-20.7246 -19.697568,-2.19479 -36.421794,-14.17552 -45.220706,-30.97461 -4.419023,2.06361 -9.329374,3.22656 -14.492187,3.22656 -2.278037,0 -4.506143,-0.22964 -6.666016,-0.65821 11.789371,28.72917 40.115814,49.14258 72.925779,49.14258 0.30741,0 0.61331,-0.008 0.91992,-0.0117 z" transform="matrix(0.26458333,0,0,0.26458333,90.714279,-2.8537211)" id="path951">
   </path>
   <path style="color:#000000;font-style:normal;font-variant:normal;font-weight:normal;font-stretch:normal;font-size:medium;line-height:normal;font-family:sans-serif;font-variant-ligatures:normal;font-variant-position:normal;font-variant-caps:normal;font-variant-numeric:normal;font-variant-alternates:normal;font-variant-east-asian:normal;font-feature-settings:normal;font-variation-settings:normal;text-indent:0;text-align:start;text-decoration:none;text-decoration-line:none;text-decoration-style:solid;text-decoration-color:#000000;letter-spacing:normal;word-spacing:normal;text-transform:none;writing-mode:lr-tb;direction:ltr;text-orientation:mixed;dominant-baseline:auto;baseline-shift:baseline;text-anchor:start;white-space:normal;shape-padding:0;shape-margin:0;inline-size:0;clip-rule:nonzero;display:inline;overflow:visible;visibility:visible;isolation:auto;mix-blend-mode:normal;color-interpolation:sRGB;color-interpolation-filters:linearRGB;solid-color:#000000;solid-opacity:1;vector-effect:none;fill:#ffffff;fill-opacity:1;fill-rule:nonzero;stroke:none;stroke-width:39.1929;stroke-linecap:butt;stroke-linejoin:miter;stroke-miterlimit:4;stroke-dasharray:none;stroke-dashoffset:0;stroke-opacity:1;paint-order:stroke fill markers;color-rendering:auto;image-rendering:auto;shape-rendering:auto;text-rendering:auto;enable-background:accumulate;stop-color:#000000" d="m 182.58984,193.42578 c -2.82213,6.7336 -7.7233,12.41234 -13.88086,16.2207 4.33527,8.16267 6.80079,17.47133 6.80079,27.36133 0,11.20538 -3.15827,21.66866 -8.625,30.5586 5.70443,4.6388 9.92644,11.04246 11.79687,18.34765 10.7356,-13.46742 17.19141,-30.47235 17.19141,-48.90234 0,-16.07663 -4.90621,-31.07602 -13.28321,-43.58594 z" transform="matrix(0.26458333,0,0,0.26458333,90.714279,-2.8537211)" id="path947">
   </path>
  </g>
 </g>
</svg>